# xmcd CD database file
#
# Track frame offsets:
#	150
#	19155
#	28235
#	50679
#	71349
#	88300
#	110341
#	131234
#	151605
#	168030
#	190900
#	207468
#	229083
#	252956
#
# Disc length: 3485 seconds
#
# Revision: 0
# Processed by: cddbd v1.5.1PL0 Copyright (c) Steve Scherf et al.
# Submitted via: CDex 1.51
#
DISCID=be0d9b0e
DTITLE=鈴木亜美 - ＳＡ
DYEAR=1900
DGENRE=JPop
TTITLE0=nothing without you
TTITLE1=STORIES BEHIND
TTITLE2=alone in my room
TTITLE3=white key
TTITLE4=ANOTHER WORLD
TTITLE5=love the island
TTITLE6=Don't leave me behind
TTITLE7=ボクのしあわせ
TTITLE8=in my diary...
TTITLE9=明日、あつく、もっと、つよく
TTITLE10=PRIVATE SKY
TTITLE11=all night long
TTITLE12=Silent Stream
TTITLE13=smile
EXTD=
EXTT0=
EXTT1=
EXTT2=
EXTT3=
EXTT4=
EXTT5=
EXTT6=
EXTT7=
EXTT8=
EXTT9=
EXTT10=
EXTT11=
EXTT12=
EXTT13=
PLAYORDER=
